
    <svg xmlns="http://www.w3.org/2000/svg" viewBox="0 0 256 256"><path fill="currentColor" d="M232.21 178.59q-5.19 1.62-10.51 2.74t-11.49 1.12q-10.81 0-18.07-4.4q-7.26-4.41-10.51-12.69q-3.24-8.28-3.24-20.07V98.8h20.33v43.45q0 7.89.86 11.33t3.81 6t7.51 2.54q5.19 0 8.79-2.36t5.64-7.34V98.8h20.33v87.48q0 12.8-4.94 20.25t-13.95 11.59q-9 4.26-20.57 4.26q-10.59 0-19.35-2.66t-15.38-8.36l8.36-15.38q5.72 4.62 12.26 7.01t13.69 2.39q6.28 0 9.93-1.79t5.64-5.27q1.99-3.48 1.99-9.55V178h-1.62q-13.46 19.56-36.79 19.56q-10.18 0-18.29-4.18t-13.22-12.07t-7.67-20.33t-2.48-27.52q0-24 10.18-41.11q10.18-17.12 27.38-17.12q13.95 0 26.02 11.84l-8.6 14.9q-9.38-9.39-19.94-9.39q-9.93 0-15.62 9.14q-5.7 9.14-5.7 26.26q0 16.88 5.7 26.11t15.62 9.22q10.42 0 19.78-10.18V145.9H97.85v-16.88h41.59v58.55q-10.71 11.05-26.36 11.05q-8.6 0-15.38-3.32t-11.13-9.14t-6.36-14.91t-2.07-20.15q0-20.57 9.06-34.81q9.05-14.24 24.69-14.24q6.92 0 13.22 3.48t10.09 9.55l11.84-11.04q-6.79-7.43-15.38-11.05t-18.43-3.62Q104.54 88 91.08 101.13T65.41 138.4q0 22.83 11.92 37.22t32.59 14.39q17.29 0 30.41-9.89v8.36H85.83V71.62h90.42v17.18h-57.19v25.89h47.68v16.88h-47.68v28.66q9.22 9.05 21.64 9.05q8.06 0 13.46-2.07t8.87-5.89q3.48-3.81 3.48-8.79v-19.78h20.33Z"/></svg>
  